<svg xmlns="http://www.w3.org/2000/svg" width="40" height="13.338" viewBox="0 0 40 13.338"><defs><style>.a{fill:#fff;}</style></defs><rect class="a" width="16.92" height="5.637" transform="translate(0 7.692)"/><rect class="a" width="16.92" height="5.642"/><path class="a" d="M618.8,138.216l-.075.015a2.466,2.466,0,0,1-.548.07c-.442,0-.965-.226-.965-1.291,0-.548.09-1.276.914-1.276h.005a2.475,2.475,0,0,1,.6.116l.065.02v2.346Zm.136-5.31-.136.025V134.9l-.121-.035-.035-.01a2.773,2.773,0,0,0-.749-.131c-1.648,0-1.995,1.246-1.995,2.291a2.032,2.032,0,0,0,2.205,2.256,4.47,4.47,0,0,0,1.472-.206.65.65,0,0,0,.553-.713V132.7c-.392.07-.8.141-1.2.206" transform="translate(-584.958 -126.033)"/><path class="a" d="M717.438,176.052l-.07.02-.251.065a2.618,2.618,0,0,1-.608.1c-.387,0-.618-.191-.618-.517,0-.211.1-.568.729-.568h.819Zm-.578-3.552a5.56,5.56,0,0,0-1.678.291l-.422.126.141.955.412-.136a4.843,4.843,0,0,1,1.371-.231c.181,0,.734,0,.734.6v.261h-.769c-1.4,0-2.05.447-2.05,1.407,0,.819.6,1.311,1.6,1.311a5.181,5.181,0,0,0,1.115-.151l.02-.005.02.005.126.02c.392.07.8.141,1.2.216v-3.135c0-1.015-.613-1.532-1.819-1.532" transform="translate(-678.699 -163.834)"/><path class="a" d="M523.138,176.052l-.07.02-.251.065a2.58,2.58,0,0,1-.608.1c-.387,0-.618-.191-.618-.517,0-.211.1-.568.723-.568h.819l.005.9Zm-.573-3.552a5.535,5.535,0,0,0-1.678.291l-.422.126.141.955.412-.136a4.843,4.843,0,0,1,1.372-.231c.181,0,.734,0,.734.6v.261h-.769c-1.4,0-2.055.447-2.055,1.407,0,.819.6,1.311,1.608,1.311a5.18,5.18,0,0,0,1.115-.151l.02-.005.02.005.121.02c.4.07.8.141,1.2.221v-3.135c.005-1.025-.608-1.537-1.814-1.537" transform="translate(-494.161 -163.834)"/><path class="a" d="M382.412,172.605a3.39,3.39,0,0,0-1.361.3l-.05.025-.045-.035a2.061,2.061,0,0,0-1.221-.3,4.994,4.994,0,0,0-1.442.216c-.427.131-.593.337-.593.723v3.582h1.336v-3.311l.065-.02a1.7,1.7,0,0,1,.588-.105.529.529,0,0,1,.583.608v2.833h1.316v-2.889a.972.972,0,0,0-.04-.291l-.045-.085.09-.04a1.584,1.584,0,0,1,.653-.136.532.532,0,0,1,.583.608v2.833h1.311v-2.964c0-1.05-.563-1.557-1.728-1.557" transform="translate(-358.725 -163.929)"/><path class="a" d="M589.471,3.677a4.559,4.559,0,0,1-.779-.07l-.075-.015V1.658a.943.943,0,0,0-.035-.276l-.04-.08.085-.035c.02-.01.04-.015.065-.025l.015-.01.09-.03a.128.128,0,0,1,.035-.01,3.12,3.12,0,0,1,.688-.08h.005c.819,0,.914.728.914,1.276-.005,1.065-.533,1.291-.97,1.291m0-3.677h-.035a2.367,2.367,0,0,0-1.839.623,1.256,1.256,0,0,0-.241.749h0V3.366a.589.589,0,0,1-.04.251l-.045.085h-2.427V2.316h-.005A2.067,2.067,0,0,0,582.688.05h-1.221c-.05.357-.09.608-.141.965h1.216c.638,0,.975.543.975,1.377v1.4l-.085-.045a.922.922,0,0,0-.286-.04h-2.1c-.04.266-.09.613-.146.96h6.456c.221-.045.477-.085.7-.121a3.636,3.636,0,0,0,1.351.246A2.2,2.2,0,0,0,591.716,2.4,2.215,2.215,0,0,0,589.466,0" transform="translate(-551.716)"/><path class="a" d="M385.155,6.295h.06c1.4,0,2.055-.462,2.055-1.6a1.468,1.468,0,0,0-1.6-1.472h-1.291a.556.556,0,0,1-.618-.593c0-.251.1-.563.728-.563h2.823c.06-.367.09-.6.146-.965h-2.934c-1.366,0-2.055.573-2.055,1.527s.6,1.437,1.6,1.437h1.291a.61.61,0,0,1,.618.628.631.631,0,0,1-.723.648h-.216l-4.135-.01h-.754c-.638,0-1.085-.362-1.085-1.2V3.552c0-.874.347-1.417,1.085-1.417h1.226c.055-.372.09-.608.141-.96h-1.673a2.1,2.1,0,0,0-2.145,2.3h0v.653a1.983,1.983,0,0,0,2.145,2.16h1.221l2.241.005h1.849Z" transform="translate(-358.725 -1.045)"/></svg>